<svg id="Camada_1" data-name="Camada 1" xmlns="http://www.w3.org/2000/svg" viewBox="0 0 311 227"><defs><style>.cls-1{fill:#fefefe;}.cls-2{fill:#cdcdcd;}.cls-3{fill:#060304;}.cls-4{fill:#12080a;}.cls-5{fill:#0a0909;}.cls-6{fill:#080607;}.cls-7{fill:#13100f;}.cls-8{fill:#3c3833;}.cls-9{fill:#563946;}.cls-10{fill:#281d21;}.cls-11{fill:#412d25;}.cls-12{fill:#39252b;}.cls-13{fill:#362b2e;}.cls-14{fill:#2d2c29;}.cls-15{fill:#605a56;}.cls-16{fill:#1c1516;}.cls-17{fill:#43303d;}.cls-18{fill:#0158c9;}.cls-19{fill:#0459c9;}.cls-20{fill:#0359c8;}.cls-21{fill:#0258c8;}.cls-22{fill:#0358c8;}.cls-23{fill:#f9f7f7;}.cls-24{fill:#0458c8;}.cls-25{fill:#f1f2f2;}.cls-26{fill:#d4cdcd;}.cls-27{fill:#2655ba;}.cls-28{fill:#7289c8;}.cls-29{fill:#6e8cc2;}.cls-30{fill:#7790b3;}.cls-31{fill:#728fc3;}.cls-32{fill:#708cb8;}.cls-33{fill:#7f90c4;}.cls-34{fill:#7088bd;}.cls-35{fill:#758fc7;}.cls-36{fill:#6d8cc0;}.cls-37{fill:#7592b2;}.cls-38{fill:#7b8eb5;}.cls-39{fill:#758cb2;}.cls-40{fill:#2955cc;}.cls-41{fill:#385bbe;}.cls-42{fill:#13090c;}.cls-43{fill:#3f6bae;}.cls-44{fill:#0b0706;}.cls-45{fill:#3d53a9;}.cls-46{fill:#bbcbd6;}.cls-47{fill:#c5cbcc;}</style></defs><title>redux-zustand</title><path class="cls-1" d="M540.5,1072.9q-75.71,0-151.41.1c-3.42,0-4.1-.67-4.09-4.09q.19-109.41,0-218.82c0-3.42.67-4.09,4.09-4.09q151.41.18,302.82,0c3.42,0,4.1.67,4.09,4.09q-.19,109.41,0,218.82c0,3.42-.67,4.1-4.09,4.09Q616.21,1072.79,540.5,1072.9Z" transform="translate(-385 -846)"/><path class="cls-2" d="M512,995.93l-1-2.42c-1.74-5.11-3-10.38-5.35-15.28-1.08-2.69-.35-5.58-1-8.32a12.64,12.64,0,0,0-.82-4.12c-.7-2.13-2.82-1.85-4.35-2.56-2.17-.71-4.19-1.87-6.49-2.19a8.93,8.93,0,0,1-1.36-.42c-6.6-2.34-13-5.11-18.21-10-6.66-6.88-10.5-15.57-15.09-23.76-2.83-5-6-9.91-8.9-14.89-2.52-4.28-7.47-5.83-10.62-9.4-.68-.36,2.13-1.3-.3-1.54-1.06-.11-2.21-.9-1.27-2.43,3.59-1.7,6.82-.34,9.84,1.4A94.07,94.07,0,0,0,459,906c2.11.84,3.29,2.63,4.81,4.14,2.38,2.35,3.68,6,7.64,6.55a4.35,4.35,0,0,1,2.33,2.47c5.2,9.45,13.3,15,23.56,17.74,2.88.9,5.84,1.56,8.64,2.68,2.85,0,2.63-2.52,3.44-4.15,2.24-4.53,2.54-10.12,7.25-13.31,6.53-6.57,12.69-13.46,19.89-19.41a76.39,76.39,0,0,1,44.36-18c9.57-.69,19.13-1.43,28.72-.29,11.76,1.42,21,8,29.82,15.08a84.41,84.41,0,0,1,21.32,26.09c1.74,3,2.75,6.38,4.19,9.55a70.36,70.36,0,0,1,5,36.07c-2.42,19.86-10.41,37.25-25.14,51.19A77.61,77.61,0,0,1,621,1037.62a76.39,76.39,0,0,1-44.77,6.26,86.36,86.36,0,0,1-39.86-17.34c-6.59-5.06-11.63-11.34-16.69-17.71C517.35,1004.41,514.4,1000.34,512,995.93Z" transform="translate(-385 -846)"/><path class="cls-3" d="M516.85,922.79c-4.1,4.65-5,10.75-7.49,16.16-.61,1.34-.54,4.27-3.48,2.27-2.17-3.75.65-6.47,2-9.5.63-3.54,2.37-6.63,4-9.74,5.66-12.45,15.39-21.4,25.64-29.92,1.39-1.16,3.29-1.64,4.33-3.27,21.35-12.1,43.61-14.14,67.62-8.8,15.9,3.53,28.23,12.08,40,21.94A35.32,35.32,0,0,1,660.93,919c.35,2.45,1.77,5-1,7-8.38-14.41-19.42-26.14-34-34.51a60.62,60.62,0,0,0-16-6.33c-2.81,1.36-5.08-.84-7.65-1.16-27.48-3.38-51.83,3.31-72.17,22.59C525,911.43,521.62,917.69,516.85,922.79Z" transform="translate(-385 -846)"/><path class="cls-4" d="M438.85,902.14c10.67,4.7,15.15,14.68,20.43,24,4.63,8.14,8.39,16.81,14.78,23.86a2.54,2.54,0,0,1,.35,2.81c-3.82.89-4.92-2.34-6.57-4.52-1.47-1.94-2-4.48-4-6.15-1.71-6.81-7.34-11.44-9.72-18.08-2.26-6.28-7.65-11-12.78-15.31-4.19-3.53-9.47-3.7-14.73-3.22-6,.55-11.91,1.1-17.88,1.56-1,.08-2.53.53-3-.9a3.74,3.74,0,0,1,.62-3.75c5.22-6.58,26.45-12.25,34.72-9.24a21.12,21.12,0,0,1,2.58,1.49c2.46,1.69,1.88,2.78-.79,3.32a27.61,27.61,0,0,0-13.78.33,15.66,15.66,0,0,0-9.12,2.15C425.94,899.68,432.54,898.49,438.85,902.14Z" transform="translate(-385 -846)"/><path class="cls-5" d="M520.27,1007.8c3.33,4.82,7,9.87,11.21,13.36,5.52,4.57,11.51,9.12,18.16,12.43,14.35,7.14,29.37,11,45.42,9.57,8.89-.78,17.45-3.35,25.91-6.17a1.47,1.47,0,0,1,1.35,1.12c-14,9.2-29.66,10.7-45.57,8.38-9.78-1.42-19-5.54-28.13-9.64a87.75,87.75,0,0,1-25.29-17.29c-2.93-2.85-4.39-6.56-5.43-10.43C517.84,1007.17,519,1007.39,520.27,1007.8Z" transform="translate(-385 -846)"/><path class="cls-6" d="M622.32,1038.11,621,1037c8.39-5.18,17.2-9.65,24.25-16.87,19.23-19.69,26.18-43.32,22.73-70.23-.64-5-2.7-9.82-4.11-14.73-.47-.76-.56-1.65.2-2.1s1.42.27,1.86,1c7.85,15.32,6.82,31.47,4.27,47.69a61.49,61.49,0,0,1-10,25.68c-4.94,7.08-9.9,14.48-17.31,19.53-4,3.52-7.92,7-12.87,9.2C627.53,1037.06,625.13,1038.36,622.32,1038.11Z" transform="translate(-385 -846)"/><path class="cls-7" d="M497,937.83c-11.72-2.23-19.54-9.46-25.11-19.58a8.76,8.76,0,0,0-.88-1.15c-2.47-1.87-5.08-3.66-4.2-7.43a2.85,2.85,0,0,1,3.55-.78c1.52,2,3.55,3.71,4.46,5.93,3.19,7.73,9.19,12.35,16.43,15.66a32.41,32.41,0,0,1,6.72,4.74C499.06,936.61,498.26,937.31,497,937.83Z" transform="translate(-385 -846)"/><path class="cls-8" d="M474.14,953.56l-.08-3.58c5.26,4.74,12,6.82,18.15,9.87-.16,1.72,1.43,2.51,2.05,3.81a1.2,1.2,0,0,1-.22,1.23c-6.74-2.49-14-4-19-9.81C474.6,954.64,474,954.31,474.14,953.56Z" transform="translate(-385 -846)"/><path class="cls-9" d="M541.86,888.79c.14,1.21-.74,1.82-1.54,2.33-8.64,5.42-15.23,13-21.61,20.74-2.58,3.12-4.57,6.73-6.82,10.12.65-4.64,3.16-8.24,6.2-11.63,6-6.68,11.92-13.42,19-19A29.29,29.29,0,0,1,541.86,888.79Z" transform="translate(-385 -846)"/><path class="cls-10" d="M494,964.89a6.33,6.33,0,0,0,0-.87c.24-1.46-2.61-2.16-1-4,2.58-.2,4.59,1.63,7,2,.37,3.2,3.87,1.06,5,2.94l1,4c-1.23,3.78-.64,7.47.57,11.12a1.64,1.64,0,0,1-.78,1.1,4.85,4.85,0,0,1-1.63-3.92C503.89,969.64,501.42,966.73,494,964.89Z" transform="translate(-385 -846)"/><path class="cls-11" d="M470.37,908.89l-3.63,1.24c-6.07-2.94-12.07-6-16.93-10.83a2.5,2.5,0,0,1,2.33-1.4A95.4,95.4,0,0,1,470.37,908.89Z" transform="translate(-385 -846)"/><path class="cls-10" d="M507,978c1.68,4.71,3.38,9.42,5,14.15.27.78-.51,1.08-1.06,1.4-5-2.72-4.86-7.61-5.19-12.3.15-.19.3-.38.43-.57C506.89,979.86,506,978.62,507,978Z" transform="translate(-385 -846)"/><path class="cls-12" d="M497,937.83c.33-.87.65-1.74,1-2.61,4.18,1.32,7.51.27,9.88-3.5-.07,3.29-2.26,6.14-2,9.5C503.29,939.14,499.73,939.57,497,937.83Z" transform="translate(-385 -846)"/><path class="cls-13" d="M520.27,1007.8a2.77,2.77,0,0,0-2.37,1.33c-2.6-4.12-6.58-7.62-5.9-13.2C516.3,998.81,518,1003.5,520.27,1007.8Z" transform="translate(-385 -846)"/><path class="cls-14" d="M665.9,934c-1.24-.63-2-.34-2.06,1.14L659.9,926c1.93-2.1.25-4.74,1-7C661.23,924.47,665.12,928.73,665.9,934Z" transform="translate(-385 -846)"/><path class="cls-15" d="M474.14,953.56l.87,1.52c-7.22-1.31-9-7.27-11.13-13C468,945.31,469.63,950.72,474.14,953.56Z" transform="translate(-385 -846)"/><path class="cls-16" d="M452.14,897.9c-.46,1-1.47,1.07-2.36,1.33-2.77.86-5.17.56-6.83-2.13.78-.25,2.25-.24.88-1.54-.88-.83-2.26-1.09-2.76-2.38C444.67,895,449.31,894.32,452.14,897.9Z" transform="translate(-385 -846)"/><path class="cls-17" d="M630,1036.12l12.87-9.2C639.34,1031,636,1035.44,630,1036.12Z" transform="translate(-385 -846)"/><path class="cls-18" d="M583,1018.06c-1.74-6-1.18-12.24-1-18.33s-5-4.6-7.94-6c-2.59-1.24-5.92-1.44-7.84,2s-3.9,6.92-5.88,10.36c-.47.82-.85,2-2.16,1.42-1.11-.51-1-1.58-.74-2.59A100.28,100.28,0,0,1,562.8,991c4.23-9.21,8.36-18.46,14.57-26.58,1.31-1.7,2.58-3.69,5.2-3.09s3,3.15,3.27,5.13a201.16,201.16,0,0,1,1.86,45.67c-.21,1.57-1.13,2.91-1.3,4.54C586.15,1019,584.7,1019,583,1018.06Z" transform="translate(-385 -846)"/><path class="cls-19" d="M543.63,949.19l21.11-2.59a26.9,26.9,0,0,1,4.45-.42c1.82.09,4.59-1.11,5.06,1.65.55,3.22-2.72,2.12-4.28,2.67-9.64,3.37-19.81,4.07-29.84,5.46-2.06.29-4.61,1-5.91-1.36-1.38-2.48-.2-4.81,1.4-6.88a199.06,199.06,0,0,1,17.63-19.64c2.56-2.53,5.57-4.59,8.38-6.87l-1.23-1.72H534.05c3.45-2.66,6.45-2.88,9.28-3.13,7.29-.62,14.6-1,21.9-1.4,1.5-.09,3.13-.37,4.06,1.19,1.1,1.84-.3,3.25-1.29,4.43-5.42,6.5-11,12.89-16.46,19.32Z" transform="translate(-385 -846)"/><path class="cls-20" d="M578.94,918c1.2,6.15,1.17,12.56,3.89,18.41,1.34,2.86,2.22,6.17,6.42,5.68,3.89-.46,5.39-3,6.26-6.62a87,87,0,0,0,1.58-29.13c-.21-2.15-.11-4.32-.12-6.48,0-1-.06-2.19,1.2-2.4s1.63.85,2.06,1.78c1.67,3.55,1.84,7.41,2.18,11.19.88,9.56,2.33,19.11-.5,28.66-2,6.84-5.61,10.84-10.55,10.94-7.84.16-12.85-3.16-14.78-10.58A83,83,0,0,1,575,904c3.54-.92,3.18,1.9,3.44,3.8C578.86,911.15,577.89,914.61,578.94,918Z" transform="translate(-385 -846)"/><path class="cls-21" d="M542.11,967c5,0,10-.08,15,0,2.4.06,4.91.55,4.93,3.7s-2.61,3.41-5,3.52c-2,.1-4,0-6,0-6.4-.08-6.43-.09-6.2,6.5.38,10.81.83,21.61,1.17,32.42.06,2,1,5.08-1.82,5.44-2.64.33-2.9-2.91-3.32-4.79a120.61,120.61,0,0,1-3-25.2c0-1.83,0-3.66,0-5.49-.16-9-.16-9-8.81-10.2a20.53,20.53,0,0,1-2.94-.51c-1.26-.36-2.82-.69-2.75-2.39.08-2,1.74-2.17,3.28-2.18,5.16,0,10.32,0,15.49,0Z" transform="translate(-385 -846)"/><path class="cls-22" d="M630.82,914.26c-4-.45-7.78-.2-9.67,4.17-1.75,4,0,7.5,2.29,10.63a40.8,40.8,0,0,0,4.9,4.94c6.21,6.08,6.58,16.39.8,22.48-7.81,8.23-17.68,9.56-24.25,3.27-2.62-2.5-3-3.63-2.42-8,2.26-.1,2.88,2,4.17,3.15,5,4.44,10.59,4,15.91-1.27,4.66-4.65,4.91-10.33.65-15.09a23.08,23.08,0,0,0-3.44-3.6c-8.71-6-4.72-20,2.88-24.73,4.25-2.66,7.94-1.81,11.61,2.66C633.9,915.35,632.2,914.41,630.82,914.26Z" transform="translate(-385 -846)"/><path class="cls-20" d="M628.93,1003.24c1.23-10.76,3-22.74,3.18-34.85.06-3.14,1.7-4.33,4.55-2.79,7,3.76,14.23,11.78,13.3,22.12-.85,9.49-8.75,20.18-16.73,22.26C629.82,1010.87,628.69,1009.44,628.93,1003.24Z" transform="translate(-385 -846)"/><path class="cls-23" d="M516.85,922.79c11.21-20.92,29.06-33.07,51.65-38.7A84,84,0,0,1,602.09,883c2.76.43,4.9,2.64,7.81,2.25-2.73,1.9-5.44,0-8.15,0-17.49,0-34.93.8-50.85,9.15-6.7,3.52-12.45,8.58-18.28,13.46-5.26,4.4-9.54,9.59-13.86,14.8C518.16,923.29,517.61,923.79,516.85,922.79Z" transform="translate(-385 -846)"/><path class="cls-20" d="M605.74,984.13c-2.3-2.14-3.51-2.66-3.73,1.49-.39,7.42-.13,14.91-1.91,22.23-.33,1.35-.44,3-2,2.85-1.89-.2-1-2.13-1.12-3.29a176.93,176.93,0,0,1-.25-31.39c.14-2,0-4.26,2.33-5s3.63,1,4.94,2.57c1.72,2,3.46,4,5.19,6C610,982.62,608.81,984.07,605.74,984.13Z" transform="translate(-385 -846)"/><path class="cls-24" d="M622.82,970c1.28,8.2-.1,16.42.12,24.63.09,3.16-3.2,4.29-5.62,2-2.7-2.57-5-5.53-7.52-8.32-1.53-5.12-1.41-5.48,2.18-6.36,1.91.64,2.25,3.3,5,3.58.34-5.18.68-10.33,1-15.48A3.47,3.47,0,0,1,622.82,970Z" transform="translate(-385 -846)"/><path class="cls-25" d="M443,897.1l6.83,2.13a101,101,0,0,1,17,10.9l4.28,7-.66,1.23c-.83-.49-2-.78-2.44-1.51-4.85-8.36-13.68-11.24-21.34-15.75a17.29,17.29,0,0,0-9.52-2.12c-2.89.57-5.89,1.64-7.93-1.72C433.71,894.66,438.33,896.16,443,897.1Z" transform="translate(-385 -846)"/><path class="cls-26" d="M429.13,897.23c2.35,1.92,5.49.24,7.93,1.72a16.63,16.63,0,0,1,2.69,2c1.26,1.43-.51.82-.9,1.16-7.91-1.16-15.82-2-23.81.15C419.27,899.11,423.66,896.67,429.13,897.23Z" transform="translate(-385 -846)"/><path class="cls-27" d="M578.94,918c-2-2.65-.65-5.7-1-8.54-.26-2.29,0-4.72-3-5.47,0-3.08.28-8.22,2.42-8,3,.35,1.26,5,1.39,7.73C579,908.46,578.9,913.22,578.94,918Z" transform="translate(-385 -846)"/><path class="cls-28" d="M532.85,981.65c-2.48,4.34-5.88,5.83-8.88,7.77-1,.67-2.28.89-3.09-.29s0-2.27.91-3A25.58,25.58,0,0,1,532.85,981.65Z" transform="translate(-385 -846)"/><path class="cls-29" d="M571.73,1014.88c-.09,4.55-2.53,7.54-4.28,10.77a1.61,1.61,0,0,1-2.51.68,1.75,1.75,0,0,1-.77-2.17C566.09,1020.87,567.46,1017.07,571.73,1014.88Z" transform="translate(-385 -846)"/><path class="cls-30" d="M651.88,926.33c-3.87,4-7.47,6.9-12.4,8.63C642,929.25,646.31,926.14,651.88,926.33Z" transform="translate(-385 -846)"/><path class="cls-31" d="M579.09,1027.55c-.55,2-1.19,4.51-2,7a1.57,1.57,0,0,1-1.92,1.14c-1-.24-1.19-1.08-1.17-1.92.09-3,1.41-5.71,2.43-8.46a1.79,1.79,0,0,1,1.52-.85C579.31,1024.78,578.71,1026.05,579.09,1027.55Z" transform="translate(-385 -846)"/><path class="cls-32" d="M614.2,1007.64c3.64,3.2,5.08,6.67,6.67,10,.4.85.43,2.24-.52,2.72-1.39.69-2-.61-2.55-1.64A38,38,0,0,1,614.2,1007.64Z" transform="translate(-385 -846)"/><path class="cls-33" d="M531.13,960c-3.91,1.4-7.4.27-10.93-.41-1-.2-2.41-.76-2-2.32s1.84-1.37,2.88-1C524.48,957.38,527.8,958.72,531.13,960Z" transform="translate(-385 -846)"/><path class="cls-34" d="M644.44,946.86c2.45-2.93,5.51-3.69,8.42-4.65,1.16-.38,2.93-.86,3.5.59.65,1.68-1.18,2.16-2.33,2.52C651.1,946.25,648.18,947.46,644.44,946.86Z" transform="translate(-385 -846)"/><path class="cls-35" d="M611.27,1030.66a17.27,17.27,0,0,1-2.79-13C611.33,1021,612.73,1024.8,611.27,1030.66Z" transform="translate(-385 -846)"/><path class="cls-36" d="M611.28,908a15.89,15.89,0,0,1,.8-10c.38-.94,1-1.9,2.21-1.48.9.31.84,1.38.72,2.16C614.55,901.82,614.09,904.93,611.28,908Z" transform="translate(-385 -846)"/><path class="cls-37" d="M564.77,907.6a24.08,24.08,0,0,1-6-7c-.56-1-1.2-2.35,0-3.13,1.53-.94,2.48.34,3.12,1.54A22.29,22.29,0,0,1,564.77,907.6Z" transform="translate(-385 -846)"/><path class="cls-38" d="M641.66,955.33c3.73.5,5.42,3.86,8,6,.65.54,1.11,1.31.18,2.06a1.55,1.55,0,0,1-2.2-.24l-7.34-6.38Z" transform="translate(-385 -846)"/><path class="cls-39" d="M533.22,938.71c-2.92-1.68-5.86-3.33-8.75-5.07-1.05-.63-1.93-1.71-1.23-2.88.8-1.35,2.07-.71,3,.09,2.59,2.32,5.11,4.72,7.65,7.09Z" transform="translate(-385 -846)"/><path class="cls-40" d="M612,981.91c-3.69,1.11-1.26,4.31-2.18,6.36l-4.06-4.14a5.75,5.75,0,0,0,3.41-4.54Z" transform="translate(-385 -846)"/><path class="cls-41" d="M583,1018.06c4.3.18,2.36-4.6,4.72-6,.38,2.35-.67,4.46-1.17,6.65-.27,1.14-.29,3.11-2,2.89S582.91,1019.54,583,1018.06Z" transform="translate(-385 -846)"/><path class="cls-42" d="M507,978c-.13.93.36,2-.8,2.68-1.94-3.48-.58-7.55-2-11.19-.43-1.1,1.07-.58,1.78-.46C507,971.91,504.84,975.18,507,978Z" transform="translate(-385 -846)"/><path class="cls-42" d="M505,965c-1.75-.11-3.49.2-5.21-.6-2.35-1.09.19-1.57.19-2.34C501.65,963.12,504.7,961.73,505,965Z" transform="translate(-385 -846)"/><path class="cls-43" d="M622.82,970,618,970c-.08-1.54.64-2.63,2.15-2.76C621.92,967.1,622.79,968.21,622.82,970Z" transform="translate(-385 -846)"/><path class="cls-44" d="M493,960.05c0,1.28.94,1.75,1.77,2.47,1.37,1.18.14,1.33-.78,1.5-.51-1.43-5.42-1-1.8-4.17A1,1,0,0,1,493,960.05Z" transform="translate(-385 -846)"/><path class="cls-45" d="M630.82,914.26c1.22-.27,2.56-.21,3.42-1.37,1.27.9,2.59,2.62,1.34,3.48C633.66,917.71,632.49,914.92,630.82,914.26Z" transform="translate(-385 -846)"/><path class="cls-46" d="M580,972.65c1.5,5.53,1,10.52,1.66,15.38.28,1.93-.49,2.73-2.59,2.13-2.51-.73-5.09-1.19-8.11-1.87C573.2,982.85,576.28,978.08,580,972.65Z" transform="translate(-385 -846)"/><path class="cls-47" d="M636,971c11.71,7.2,9.47,24.33-1.27,30.52A235.7,235.7,0,0,0,636,971Z" transform="translate(-385 -846)"/></svg>